# xmcd
#
# Track frame offsets: 
#        150
#        12170
#        25005
#        38677
#        51165
#        60092
#        74112
#        84262
#        94912
#        108020
#        119685
#        131217
#        142990
#        152435
#        164267
#        174677
#
# Disc length: 2464 seconds
#
# Revision: 0
# Processed by: cddbd v1.4b42PL1 Copyright (c) Steve Scherf et al.
# Submitted via: ExactAudioCopy v0.90a11
#
DISCID=cb099e10
DTITLE=Wayne Horsburgh - Wayne Horsburgh
DYEAR=1900
DGENRE=
TTITLE0=Ghost Riders In The Sky
TTITLE1=Empty Saddles
TTITLE2=Hoppy, Gene and Me
TTITLE3=Back In The Saddle Again
TTITLE4=Cattle Call
TTITLE5=Cool Water
TTITLE6=TimberTrail
TTITLE7=Ridin' Down The Canyon
TTITLE8=Singing Cowboy
TTITLE9=Tumbling Tumbleweed
TTITLE10=Red River Valley
TTITLE11=The Last Roundup
TTITLE12=Whoopie Ti Yi Yo
TTITLE13=South Of The Border
TTITLE14=Cowboy's Dream
TTITLE15=Happy Trails
EXTD=
EXTT0=
EXTT1=
EXTT2=
EXTT3=
EXTT4=
EXTT5=
EXTT6=
EXTT7=
EXTT8=
EXTT9=
EXTT10=
EXTT11=
EXTT12=
EXTT13=
EXTT14=
EXTT15=
PLAYORDER=
